# xmcd
#
# Track frame offsets: 
#        150
#        11707
#        23082
#        39617
#        54872
#        70652
#        83072
#        96037
#        115760
#        134765
#        150255
#        168752
#        179047
#        193835
#
# Disc length: 2617 seconds
#
# Revision: 0
# Processed by: cddbd v1.5.2PL0 Copyright (c) Steve Scherf et al.
# Submitted via: ExactAudioCopy v0.95a3
#
DISCID=ae0a370e
DTITLE=The Sunday Skifflers - My Favorites
DYEAR=1996
DGENRE=Country
TTITLE0=Falling in love to the night
TTITLE1=Why baby why
TTITLE2=Angels
TTITLE3=Something to talk about
TTITLE4=I fall to pieces
TTITLE5=Satin sheets
TTITLE6=Nashville Tennessee
TTITLE7=Winters end
TTITLE8=Why do i have to choose
TTITLE9=I wish you were here
TTITLE10=Beneath still waters
TTITLE11=Ring of fire
TTITLE12=Bring it on home to me3
TTITLE13=total
EXTD=
EXTT0=
EXTT1=
EXTT2=
EXTT3=
EXTT4=
EXTT5=
EXTT6=
EXTT7=
EXTT8=
EXTT9=
EXTT10=
EXTT11=
EXTT12=
EXTT13=
PLAYORDER=
